<svg id="Logo_Sample" data-name="Logo Sample" xmlns="http://www.w3.org/2000/svg" viewBox="0 0 171.845 279.037"><title>Importspark-NoBG</title><polygon points="54.673 274.518 168.423 162.018 54.673 260.026 54.673 274.518" fill="#bfbebe"/><polygon points="131.134 5.947 90.368 134.379 35.024 117.005 131.134 5.947" fill="#bfbebe"/><polygon points="75.203 162.713 2.461 117.249 124.596 4.509 96.642 116.324 169.383 161.788 47.249 274.527 75.203 162.713" fill="#231f20"/><path d="M215.25,48.786l-27,108,72,45-117,108,27-108-72-45,117-108m5.347-9.018-7.382,6.814-117,108-2.888,2.666,3.333,2.083,70.151,43.844L140.34,309.058,137.9,318.8l7.382-6.814,117-108,2.888-2.666-3.333-2.083L191.689,155.4,218.16,49.514l2.437-9.746Z" transform="translate(-93.327 -39.768)" fill="#231f20"/><g id="_Group_" data-name="&lt;Group&gt;"><polygon points="166.923 162.018 49.923 270.018 108.923 145.908 166.923 162.018" fill="#f89a1e"/><polygon points="166.923 162.018 108.923 145.908 39.873 126.728 94.923 117.018 166.923 162.018" fill="#ffd45c"/><polygon points="121.923 9.018 94.923 117.018 39.873 126.728 121.923 9.018" fill="#f89a1e"/><polygon points="121.923 9.018 39.873 126.728 4.923 117.018 121.923 9.018" fill="#ffd45c"/><polygon points="108.923 145.908 49.923 270.018 76.923 162.018 108.923 145.908" fill="#ffd45c"/><polygon points="108.923 145.908 76.923 162.018 4.923 117.018 39.873 126.728 108.923 145.908" fill="#f89a1e"/></g><polygon points="137.772 153.927 109.099 145.963 109.099 145.962 108.915 145.911 108.91 145.909 108.91 145.91 40.438 126.891 67.271 121.905 40.147 126.688 65.268 90.213 39.821 126.719 22.498 121.908 39.669 126.937 39.669 126.937 108.577 146.077 92.561 154.141 108.653 146.319 89.731 186.122 108.99 146.192 137.772 153.927" fill="#231f20"/></svg>